<svg width="32" height="32" viewBox="0 0 32 32" fill="none" xmlns="http://www.w3.org/2000/svg">
    <g opacity="0.78">
        <path d="M14.7999 21.1992C14.7999 21.862 15.3372 22.3992 15.9999 22.3992C16.6627 22.3992 17.1999 21.862 17.1999 21.1992L17.1999 7.41749L21.9275 12.4232C22.3826 12.905 23.1421 12.9267 23.6239 12.4716C24.1057 12.0166 24.1274 11.2571 23.6724 10.7753L16.8724 3.57527C16.6457 3.33524 16.3301 3.19922 15.9999 3.19922C15.6698 3.19922 15.3542 3.33524 15.1275 3.57527L8.32753 10.7753C7.87248 11.2571 7.89418 12.0166 8.376 12.4716C8.85782 12.9267 9.61731 12.905 10.0724 12.4232L14.7999 7.41749L14.7999 21.1992Z"
              fill="#6B7280"/>
        <path d="M5.59995 20.3992C5.59995 19.7365 5.06269 19.1992 4.39995 19.1992C3.73721 19.1992 3.19995 19.7365 3.19995 20.3992V24.3992C3.19995 26.8293 5.1699 28.7992 7.59995 28.7992H24.4C26.83 28.7992 28.7999 26.8293 28.7999 24.3992V20.3992C28.7999 19.7365 28.2627 19.1992 27.5999 19.1992C26.9372 19.1992 26.4 19.7365 26.4 20.3992V24.3992C26.4 25.5038 25.5045 26.3992 24.4 26.3992H7.59995C6.49538 26.3992 5.59995 25.5038 5.59995 24.3992V20.3992Z"
              fill="#6B7280"/>
    </g>
</svg>
