<svg width="25" height="24" viewBox="0 0 25 24" fill="none" xmlns="http://www.w3.org/2000/svg">
    <path fill-rule="evenodd" clip-rule="evenodd"
          d="M4.09961 11.9999C4.09961 11.5029 4.50255 11.0999 4.99961 11.0999L17.7651 11.0999L12.7758 6.3487C12.4175 6.00418 12.4063 5.43445 12.7509 5.07615C13.0954 4.71786 13.6651 4.70669 14.0234 5.0512L20.6234 11.3512C20.7999 11.5209 20.8996 11.7551 20.8996 11.9999C20.8996 12.2448 20.7999 12.479 20.6234 12.6487L14.0234 18.9487C13.6651 19.2932 13.0954 19.282 12.7509 18.9237C12.4063 18.5655 12.4175 17.9957 12.7758 17.6512L17.7651 12.8999L4.99961 12.8999C4.50255 12.8999 4.09961 12.497 4.09961 11.9999Z"
          fill="#6B7280"/>
</svg>
