<svg width="32" height="32" viewBox="0 0 32 32" fill="none" xmlns="http://www.w3.org/2000/svg">
    <rect width="32" height="32" rx="16" fill="#111827" fill-opacity="0.7"/>
    <path d="M13.0243 12.1757C12.7899 11.9414 12.4101 11.9414 12.1757 12.1757C11.9414 12.4101 11.9414 12.7899 12.1757 13.0243L15.1515 16L12.1757 18.9757C11.9414 19.2101 11.9414 19.59 12.1757 19.8243C12.4101 20.0586 12.7899 20.0586 13.0243 19.8243L16 16.8485L18.9757 19.8243C19.2101 20.0586 19.59 20.0586 19.8243 19.8243C20.0586 19.59 20.0586 19.2101 19.8243 18.9757L16.8485 16L19.8243 13.0243C20.0586 12.7899 20.0586 12.4101 19.8243 12.1757C19.59 11.9414 19.2101 11.9414 18.9757 12.1757L16 15.1515L13.0243 12.1757Z"
          fill="white"/>
</svg>
